<svg xmlns="http://www.w3.org/2000/svg" viewBox="0 0 595.28 841.89"><defs><style>.cls-1{isolation:isolate;}.cls-2,.cls-3,.cls-4,.cls-5{fill:none;stroke:#98d359;stroke-linecap:round;stroke-miterlimit:10;stroke-width:3px;}.cls-3{stroke-dasharray:12.1 12.1;}.cls-4{stroke-dasharray:12.1 12.1;}.cls-5{stroke-dasharray:12;}.cls-6{fill:#8ec4d7;}.cls-7{opacity:0.24;}.cls-7,.cls-9{mix-blend-mode:luminosity;}.cls-8{fill:#fff;mix-blend-mode:soft-light;}.cls-9{fill:#85c146;}</style></defs><title>Zeichenfläche 1 Kopie 2</title><g class="cls-1"><g id="Ebene_1_Kopie" data-name="Ebene 1 Kopie"><g id="Podanatomie"><polyline class="cls-2" points="175.38 503.12 169.38 503.12 169.38 497.12"/><line class="cls-3" x1="169.37" y1="485.03" x2="169.37" y2="200.78"/><polyline class="cls-2" points="169.38 194.73 169.38 188.73 175.38 188.73"/><line class="cls-4" x1="187.47" y1="188.73" x2="471.72" y2="188.73"/><polyline class="cls-2" points="477.77 188.73 483.77 188.73 483.77 194.73"/><line class="cls-4" x1="483.77" y1="206.83" x2="483.77" y2="491.08"/><polyline class="cls-2" points="483.77 497.12 483.77 503.12 477.77 503.12"/><line class="cls-4" x1="465.67" y1="503.12" x2="181.42" y2="503.12"/><line class="cls-5" x1="483.77" y1="503.12" x2="405.17" y2="581.72"/><line class="cls-5" x1="169.37" y1="503.12" x2="90.78" y2="581.72"/><polygon id="Hintergrund" class="cls-6" points="137.16 377.3 97.05 417.42 97.05 577.89 257.52 577.89 297.64 537.78 297.64 377.3 137.16 377.3"/><polygon id="Schatten" class="cls-7" points="257.52 417.42 297.64 377.3 297.64 537.78 257.52 577.89 257.52 417.42"/><polygon id="Licht" class="cls-8" points="137.16 377.3 97.05 417.42 257.52 417.42 297.64 377.3 137.16 377.3"/><polygon id="Hintergrund-2" data-name="Hintergrund" class="cls-6" points="333.8 275.78 312.6 296.98 312.6 381.79 397.41 381.79 418.61 360.59 418.61 275.78 333.8 275.78"/><polygon id="Schatten-2" data-name="Schatten" class="cls-7" points="397.41 296.98 418.61 275.78 418.61 360.59 397.41 381.79 397.41 296.98"/><polygon id="Licht-2" data-name="Licht" class="cls-8" points="333.8 275.78 312.6 296.98 397.41 296.98 418.61 275.78 333.8 275.78"/><polygon id="Hintergrund-3" data-name="Hintergrund" class="cls-6" points="205.36 276.44 188.78 293.01 188.78 359.32 255.09 359.32 271.66 342.74 271.66 276.44 205.36 276.44"/><polygon id="Schatten-3" data-name="Schatten" class="cls-7" points="255.09 293.01 271.66 276.44 271.66 342.74 255.09 359.32 255.09 293.01"/><polygon id="Licht-3" data-name="Licht" class="cls-8" points="205.36 276.44 188.78 293.01 255.09 293.01 271.66 276.44 205.36 276.44"/><polyline class="cls-2" points="96.78 581.72 90.78 581.72 90.78 575.72"/><line class="cls-3" x1="90.78" y1="563.63" x2="90.78" y2="279.38"/><polyline class="cls-2" points="90.78 273.33 90.78 267.33 96.78 267.33"/><line class="cls-4" x1="108.87" y1="267.33" x2="393.12" y2="267.33"/><polyline class="cls-2" points="399.17 267.33 405.17 267.33 405.17 273.33"/><line class="cls-4" x1="405.17" y1="285.43" x2="405.17" y2="569.67"/><polyline class="cls-2" points="405.17 575.72 405.17 581.72 399.17 581.72"/><line class="cls-4" x1="387.07" y1="581.72" x2="102.82" y2="581.72"/><line class="cls-5" x1="169.37" y1="188.73" x2="90.78" y2="267.33"/><line class="cls-5" x1="483.77" y1="188.73" x2="405.17" y2="267.33"/></g><polygon id="Symbol_Stern" data-name="Symbol Stern" class="cls-9" points="354.61 491.52 366.84 516.29 394.17 520.26 374.39 539.54 379.06 566.76 354.61 553.91 330.17 566.76 334.84 539.54 315.06 520.26 342.39 516.29 354.61 491.52"/></g></g></svg>