<svg xmlns="http://www.w3.org/2000/svg" viewBox="0 0 595.28 841.89"><defs><style>.cls-1{isolation:isolate;}.cls-2{fill:#9ee261;}.cls-3{opacity:0.24;}.cls-3,.cls-6{mix-blend-mode:luminosity;}.cls-4{fill:#fff;mix-blend-mode:soft-light;}.cls-5{fill:#8ec4d7;}.cls-6{opacity:0.3;font-size:32.63px;font-family:HelveticaNeue-Bold, Helvetica Neue;font-weight:700;}</style></defs><title>Zeichenfläche 1 Kopie 7</title><g class="cls-1"><g id="Ebene_1_Kopie" data-name="Ebene 1 Kopie"><g id="Pod"><polygon id="Hintergrund" class="cls-2" points="268.95 301.44 256.74 313.66 256.74 362.51 305.59 362.51 317.81 350.3 317.81 301.44 268.95 301.44"/><polygon id="Schatten" class="cls-3" points="305.59 313.66 317.81 301.44 317.81 350.3 305.59 362.51 305.59 313.66"/><polygon id="Licht" class="cls-4" points="268.95 301.44 256.74 313.66 305.59 313.66 317.81 301.44 268.95 301.44"/><polygon id="Symbol_Stern" data-name="Symbol Stern" class="cls-3" points="286.98 333.34 290.98 341.43 299.9 342.73 293.44 349.03 294.97 357.92 286.98 353.72 279 357.92 280.52 349.03 274.06 342.73 282.99 341.43 286.98 333.34"/></g><g id="Pod-2" data-name="Pod"><polygon id="Hintergrund-2" data-name="Hintergrund" class="cls-2" points="242.59 420.51 230.38 432.72 230.38 481.58 279.24 481.58 291.45 469.37 291.45 420.51 242.59 420.51"/><polygon id="Schatten-2" data-name="Schatten" class="cls-3" points="279.24 432.72 291.45 420.51 291.45 469.37 279.24 481.58 279.24 432.72"/><polygon id="Licht-2" data-name="Licht" class="cls-4" points="242.59 420.51 230.38 432.72 279.24 432.72 291.45 420.51 242.59 420.51"/><polygon id="Symbol_Stern-2" data-name="Symbol Stern" class="cls-3" points="260.63 452.41 264.62 460.5 273.55 461.8 267.09 468.09 268.61 476.99 260.63 472.79 252.64 476.99 254.17 468.09 247.71 461.8 256.63 460.5 260.63 452.41"/></g><g id="Pod-3" data-name="Pod"><polygon id="Hintergrund-3" data-name="Hintergrund" class="cls-2" points="155.36 371.5 143.14 383.71 143.14 432.57 192 432.57 204.22 420.35 204.22 371.5 155.36 371.5"/><polygon id="Schatten-3" data-name="Schatten" class="cls-3" points="192 383.71 204.22 371.5 204.22 420.35 192 432.57 192 383.71"/><polygon id="Licht-3" data-name="Licht" class="cls-4" points="155.36 371.5 143.14 383.71 192 383.71 204.22 371.5 155.36 371.5"/><polygon id="Symbol_Stern-3" data-name="Symbol Stern" class="cls-3" points="173.39 403.4 177.38 411.49 186.31 412.78 179.85 419.08 181.38 427.97 173.39 423.77 165.41 427.97 166.93 419.08 160.47 412.78 169.4 411.49 173.39 403.4"/></g><g id="Pod-4" data-name="Pod"><polygon id="Hintergrund-4" data-name="Hintergrund" class="cls-2" points="363.52 371.5 351.31 383.71 351.31 432.57 400.17 432.57 412.38 420.35 412.38 371.5 363.52 371.5"/><polygon id="Schatten-4" data-name="Schatten" class="cls-3" points="400.17 383.71 412.38 371.5 412.38 420.35 400.17 432.57 400.17 383.71"/><polygon id="Licht-4" data-name="Licht" class="cls-4" points="363.52 371.5 351.31 383.71 400.17 383.71 412.38 371.5 363.52 371.5"/><polygon id="Symbol_Stern-4" data-name="Symbol Stern" class="cls-3" points="381.56 403.4 385.55 411.49 394.48 412.78 388.02 419.08 389.54 427.97 381.56 423.77 373.57 427.97 375.1 419.08 368.64 412.78 377.57 411.49 381.56 403.4"/></g><path class="cls-5" d="M456.71,258.79V527.14H105.57V258.79H456.71m2-2H103.57V529.14H458.71V256.79Z"/><g id="Deployment_Label" data-name="Deployment Label"><rect class="cls-5" x="103.57" y="211.87" width="47.56" height="44.92"/><text id="Buchstabe" class="cls-6" transform="translate(115.24 245.4)">D</text></g></g></g></svg>