<svg xmlns="http://www.w3.org/2000/svg" xmlns:xlink="http://www.w3.org/1999/xlink" viewBox="0 0 595.28 841.89"><defs><style>.cls-1,.cls-10{fill:none;}.cls-2{isolation:isolate;}.cls-3{fill:#8ec4d7;}.cls-4{fill:#e1f9ff;}.cls-5{clip-path:url(#clip-path);}.cls-6{fill:#d7edff;}.cls-7,.cls-9{opacity:0.3;mix-blend-mode:luminosity;font-family:HelveticaNeue-Bold, Helvetica Neue;font-weight:700;}.cls-7{font-size:27.86px;}.cls-8{fill:#ab79e0;}.cls-9{font-size:46.27px;}.cls-10{stroke:#71afbf;stroke-linecap:round;stroke-miterlimit:10;stroke-width:3px;stroke-dasharray:12;}</style><clipPath id="clip-path"><rect class="cls-1" x="18.4" y="215.71" width="278.56" height="369.58"/></clipPath></defs><title>Zeichenfläche 1 Kopie 8</title><g class="cls-2"><g id="Ebene_1_Kopie" data-name="Ebene 1 Kopie"><rect class="cls-3" width="595.28" height="841.89"/><g id="Wolke"><ellipse class="cls-4" cx="204.21" cy="334.47" rx="68.21" ry="62.42"/><ellipse class="cls-4" cx="297.83" cy="322.8" rx="76.81" ry="70.29"/><ellipse class="cls-4" cx="393.12" cy="348.51" rx="85.18" ry="61.9"/><ellipse class="cls-4" cx="463.71" cy="421.58" rx="83.97" ry="60.28"/><ellipse class="cls-4" cx="149.15" cy="388.13" rx="57.59" ry="60.28"/><ellipse class="cls-4" cx="125.81" cy="438.87" rx="80.93" ry="50.74"/><ellipse class="cls-4" cx="221.02" cy="451.7" rx="116.3" ry="77.15"/><ellipse class="cls-4" cx="323.04" cy="460.19" rx="91.28" ry="72.06"/><ellipse class="cls-4" cx="393.12" cy="435.9" rx="116.3" ry="92.95"/></g><g class="cls-5"><g id="Wolke-2" data-name="Wolke"><ellipse class="cls-6" cx="204.21" cy="334.47" rx="68.21" ry="62.42"/><ellipse class="cls-6" cx="297.83" cy="322.8" rx="76.81" ry="70.29"/><ellipse class="cls-6" cx="393.12" cy="348.51" rx="85.18" ry="61.9"/><ellipse class="cls-6" cx="463.71" cy="421.58" rx="83.97" ry="60.28"/><ellipse class="cls-6" cx="149.15" cy="388.13" rx="57.59" ry="60.28"/><ellipse class="cls-6" cx="125.81" cy="438.87" rx="80.93" ry="50.74"/><ellipse class="cls-6" cx="221.02" cy="451.7" rx="116.3" ry="77.15"/><ellipse class="cls-6" cx="323.04" cy="460.19" rx="91.28" ry="72.06"/><ellipse class="cls-6" cx="393.12" cy="435.9" rx="116.3" ry="92.95"/></g></g><g id="Deployment_Label" data-name="Deployment Label"><rect class="cls-3" x="128.85" y="388.13" width="40.6" height="38.35"/><text id="Buchstabe" class="cls-7" transform="translate(138.81 416.76)">D</text></g><g id="Deployment_Label-2" data-name="Deployment Label"><rect class="cls-8" x="346.02" y="311.09" width="67.45" height="63.7"/><text id="Buchstabe-2" data-name="Buchstabe" class="cls-9" transform="translate(362.57 358.65)">N</text></g><g id="Deployment_Label-3" data-name="Deployment Label"><rect class="cls-8" x="184.71" y="302.61" width="67.45" height="63.7"/><text id="Buchstabe-3" data-name="Buchstabe" class="cls-9" transform="translate(201.27 350.17)">N</text></g><g id="Deployment_Label-4" data-name="Deployment Label"><rect class="cls-3" x="208.47" y="441.02" width="40.6" height="38.35"/><text id="Buchstabe-4" data-name="Buchstabe" class="cls-7" transform="translate(218.44 469.65)">D</text></g><g id="Deployment_Label-5" data-name="Deployment Label"><rect class="cls-3" x="369.35" y="421.58" width="40.6" height="38.35"/><text id="Buchstabe-5" data-name="Buchstabe" class="cls-7" transform="translate(379.32 450.21)">D</text></g><line class="cls-10" x1="297.83" y1="252.5" x2="297.83" y2="528.85"/></g></g></svg>