<svg xmlns="http://www.w3.org/2000/svg" viewBox="0 0 595.28 841.89"><defs><style>.cls-1{isolation:isolate;}.cls-2{fill:#8ec4d7;}.cls-3,.cls-4{fill:#444849;}.cls-3{opacity:0.51;}.cls-5{fill:#afafaf;}.cls-6{fill:#fff;}.cls-7{opacity:0.3;mix-blend-mode:luminosity;font-size:46.27px;font-family:HelveticaNeue-Bold, Helvetica Neue;font-weight:700;}</style></defs><title>Zeichenfläche 1 Kopie 3</title><g class="cls-1"><g id="Ebene_1_Kopie" data-name="Ebene 1 Kopie"><rect class="cls-2" width="595.28" height="841.89"/><g id="Server"><rect class="cls-3" x="62.41" y="371.55" width="141.8" height="281.83"/><g id="Server_Slice" data-name="Server Slice"><rect class="cls-4" x="70.95" y="383.44" width="125.79" height="33.28" rx="4.62"/><circle class="cls-5" cx="83.49" cy="400.08" r="3.85"/><rect class="cls-5" x="156.66" y="387.73" width="7.99" height="25.14"/><rect class="cls-5" x="168.04" y="387.73" width="7.99" height="25.14"/><rect class="cls-5" x="179.43" y="387.73" width="7.99" height="25.14"/></g><g id="Server_Slice-2" data-name="Server Slice"><rect class="cls-4" x="70.95" y="421.2" width="125.79" height="33.28" rx="4.62"/><circle class="cls-5" cx="83.49" cy="437.84" r="3.85"/><rect class="cls-5" x="156.66" y="425.49" width="7.99" height="25.14"/><rect class="cls-5" x="168.04" y="425.49" width="7.99" height="25.14"/><rect class="cls-5" x="179.43" y="425.49" width="7.99" height="25.14"/></g><g id="Server_Slice-3" data-name="Server Slice"><rect class="cls-4" x="70.95" y="458.96" width="125.79" height="33.28" rx="4.62"/><circle class="cls-5" cx="83.49" cy="475.6" r="3.85"/><rect class="cls-5" x="156.66" y="463.25" width="7.99" height="25.14"/><rect class="cls-5" x="168.04" y="463.25" width="7.99" height="25.14"/><rect class="cls-5" x="179.43" y="463.25" width="7.99" height="25.14"/></g><g id="Server_Slice-4" data-name="Server Slice"><rect class="cls-4" x="70.95" y="496.72" width="125.79" height="33.28" rx="4.62"/><circle class="cls-5" cx="83.49" cy="513.36" r="3.85"/><rect class="cls-5" x="156.66" y="501.01" width="7.99" height="25.14"/><rect class="cls-5" x="168.04" y="501.01" width="7.99" height="25.14"/><rect class="cls-5" x="179.43" y="501.01" width="7.99" height="25.14"/></g><g id="Server_Slice-5" data-name="Server Slice"><rect class="cls-4" x="70.95" y="534.48" width="125.79" height="33.28" rx="4.62"/><circle class="cls-5" cx="83.49" cy="551.12" r="3.85"/><rect class="cls-5" x="156.66" y="538.77" width="7.99" height="25.14"/><rect class="cls-5" x="168.04" y="538.77" width="7.99" height="25.14"/><rect class="cls-5" x="179.43" y="538.77" width="7.99" height="25.14"/></g><g id="Server_Slice-6" data-name="Server Slice"><rect class="cls-4" x="70.95" y="572.24" width="125.79" height="33.28" rx="4.62"/><circle class="cls-5" cx="83.49" cy="588.88" r="3.85"/><rect class="cls-5" x="156.66" y="576.53" width="7.99" height="25.14"/><rect class="cls-5" x="168.04" y="576.53" width="7.99" height="25.14"/><rect class="cls-5" x="179.43" y="576.53" width="7.99" height="25.14"/></g><g id="Server_Slice-7" data-name="Server Slice"><rect class="cls-4" x="70.95" y="610" width="125.79" height="33.28" rx="4.62"/><circle class="cls-5" cx="83.49" cy="626.64" r="3.85"/><rect class="cls-5" x="156.66" y="614.29" width="7.99" height="25.14"/><rect class="cls-5" x="168.04" y="614.29" width="7.99" height="25.14"/><rect class="cls-5" x="179.43" y="614.29" width="7.99" height="25.14"/></g></g><g id="Server-2" data-name="Server"><rect class="cls-3" x="226.06" y="371.55" width="141.8" height="281.83"/><g id="Server_Slice-8" data-name="Server Slice"><rect class="cls-4" x="234.59" y="383.44" width="125.79" height="33.28" rx="4.62"/><circle class="cls-5" cx="247.13" cy="400.08" r="3.85"/><rect class="cls-5" x="320.3" y="387.73" width="7.99" height="25.14"/><rect class="cls-5" x="331.69" y="387.73" width="7.99" height="25.14"/><rect class="cls-5" x="343.08" y="387.73" width="7.99" height="25.14"/></g><g id="Server_Slice-9" data-name="Server Slice"><rect class="cls-4" x="234.59" y="421.2" width="125.79" height="33.28" rx="4.62"/><circle class="cls-5" cx="247.13" cy="437.84" r="3.85"/><rect class="cls-5" x="320.3" y="425.49" width="7.99" height="25.14"/><rect class="cls-5" x="331.69" y="425.49" width="7.99" height="25.14"/><rect class="cls-5" x="343.08" y="425.49" width="7.99" height="25.14"/></g><g id="Server_Slice-10" data-name="Server Slice"><rect class="cls-4" x="234.59" y="458.96" width="125.79" height="33.28" rx="4.62"/><circle class="cls-5" cx="247.13" cy="475.6" r="3.85"/><rect class="cls-5" x="320.3" y="463.25" width="7.99" height="25.14"/><rect class="cls-5" x="331.69" y="463.25" width="7.99" height="25.14"/><rect class="cls-5" x="343.08" y="463.25" width="7.99" height="25.14"/></g><g id="Server_Slice-11" data-name="Server Slice"><rect class="cls-4" x="234.59" y="496.72" width="125.79" height="33.28" rx="4.62"/><circle class="cls-5" cx="247.13" cy="513.36" r="3.85"/><rect class="cls-5" x="320.3" y="501.01" width="7.99" height="25.14"/><rect class="cls-5" x="331.69" y="501.01" width="7.99" height="25.14"/><rect class="cls-5" x="343.08" y="501.01" width="7.99" height="25.14"/></g><g id="Server_Slice-12" data-name="Server Slice"><rect class="cls-4" x="234.59" y="534.48" width="125.79" height="33.28" rx="4.62"/><circle class="cls-5" cx="247.13" cy="551.12" r="3.85"/><rect class="cls-5" x="320.3" y="538.77" width="7.99" height="25.14"/><rect class="cls-5" x="331.69" y="538.77" width="7.99" height="25.14"/><rect class="cls-5" x="343.08" y="538.77" width="7.99" height="25.14"/></g><g id="Server_Slice-13" data-name="Server Slice"><rect class="cls-4" x="234.59" y="572.24" width="125.79" height="33.28" rx="4.62"/><circle class="cls-5" cx="247.13" cy="588.88" r="3.85"/><rect class="cls-5" x="320.3" y="576.53" width="7.99" height="25.14"/><rect class="cls-5" x="331.69" y="576.53" width="7.99" height="25.14"/><rect class="cls-5" x="343.08" y="576.53" width="7.99" height="25.14"/></g><g id="Server_Slice-14" data-name="Server Slice"><rect class="cls-4" x="234.59" y="610" width="125.79" height="33.28" rx="4.62"/><circle class="cls-5" cx="247.13" cy="626.64" r="3.85"/><rect class="cls-5" x="320.3" y="614.29" width="7.99" height="25.14"/><rect class="cls-5" x="331.69" y="614.29" width="7.99" height="25.14"/><rect class="cls-5" x="343.08" y="614.29" width="7.99" height="25.14"/></g></g><g id="Server-3" data-name="Server"><rect class="cls-3" x="392.13" y="371.55" width="141.8" height="281.83"/><g id="Server_Slice-15" data-name="Server Slice"><rect class="cls-4" x="400.67" y="383.44" width="125.79" height="33.28" rx="4.62"/><circle class="cls-5" cx="413.21" cy="400.08" r="3.85"/><rect class="cls-5" x="486.38" y="387.73" width="7.99" height="25.14"/><rect class="cls-5" x="497.77" y="387.73" width="7.99" height="25.14"/><rect class="cls-5" x="509.15" y="387.73" width="7.99" height="25.14"/></g><g id="Server_Slice-16" data-name="Server Slice"><rect class="cls-4" x="400.67" y="421.2" width="125.79" height="33.28" rx="4.62"/><circle class="cls-5" cx="413.21" cy="437.84" r="3.85"/><rect class="cls-5" x="486.38" y="425.49" width="7.99" height="25.14"/><rect class="cls-5" x="497.77" y="425.49" width="7.99" height="25.14"/><rect class="cls-5" x="509.15" y="425.49" width="7.99" height="25.14"/></g><g id="Server_Slice-17" data-name="Server Slice"><rect class="cls-4" x="400.67" y="458.96" width="125.79" height="33.28" rx="4.62"/><circle class="cls-5" cx="413.21" cy="475.6" r="3.85"/><rect class="cls-5" x="486.38" y="463.25" width="7.99" height="25.14"/><rect class="cls-5" x="497.77" y="463.25" width="7.99" height="25.14"/><rect class="cls-5" x="509.15" y="463.25" width="7.99" height="25.14"/></g><g id="Server_Slice-18" data-name="Server Slice"><rect class="cls-4" x="400.67" y="496.72" width="125.79" height="33.28" rx="4.62"/><circle class="cls-5" cx="413.21" cy="513.36" r="3.85"/><rect class="cls-5" x="486.38" y="501.01" width="7.99" height="25.14"/><rect class="cls-5" x="497.77" y="501.01" width="7.99" height="25.14"/><rect class="cls-5" x="509.15" y="501.01" width="7.99" height="25.14"/></g><g id="Server_Slice-19" data-name="Server Slice"><rect class="cls-4" x="400.67" y="534.48" width="125.79" height="33.28" rx="4.62"/><circle class="cls-5" cx="413.21" cy="551.12" r="3.85"/><rect class="cls-5" x="486.38" y="538.77" width="7.99" height="25.14"/><rect class="cls-5" x="497.77" y="538.77" width="7.99" height="25.14"/><rect class="cls-5" x="509.15" y="538.77" width="7.99" height="25.14"/></g><g id="Server_Slice-20" data-name="Server Slice"><rect class="cls-4" x="400.67" y="572.24" width="125.79" height="33.28" rx="4.62"/><circle class="cls-5" cx="413.21" cy="588.88" r="3.85"/><rect class="cls-5" x="486.38" y="576.53" width="7.99" height="25.14"/><rect class="cls-5" x="497.77" y="576.53" width="7.99" height="25.14"/><rect class="cls-5" x="509.15" y="576.53" width="7.99" height="25.14"/></g><g id="Server_Slice-21" data-name="Server Slice"><rect class="cls-4" x="400.67" y="610" width="125.79" height="33.28" rx="4.62"/><circle class="cls-5" cx="413.21" cy="626.64" r="3.85"/><rect class="cls-5" x="486.38" y="614.29" width="7.99" height="25.14"/><rect class="cls-5" x="497.77" y="614.29" width="7.99" height="25.14"/><rect class="cls-5" x="509.15" y="614.29" width="7.99" height="25.14"/></g></g><g id="Wolke"><ellipse class="cls-6" cx="204.21" cy="252.38" rx="68.21" ry="62.42"/><ellipse class="cls-6" cx="297.83" cy="240.71" rx="76.81" ry="70.29"/><ellipse class="cls-6" cx="393.12" cy="266.42" rx="85.18" ry="61.9"/><ellipse class="cls-6" cx="463.71" cy="339.49" rx="83.97" ry="60.28"/><ellipse class="cls-6" cx="149.15" cy="306.05" rx="57.59" ry="60.28"/><ellipse class="cls-6" cx="125.81" cy="356.78" rx="80.93" ry="50.74"/><ellipse class="cls-6" cx="221.02" cy="369.61" rx="116.3" ry="77.15"/><ellipse class="cls-6" cx="323.04" cy="378.11" rx="91.28" ry="72.06"/><ellipse class="cls-6" cx="393.12" cy="353.81" rx="116.3" ry="92.95"/></g><g id="Deployment_Label" data-name="Deployment Label"><rect class="cls-2" x="153.69" y="250.18" width="67.45" height="63.7"/><text id="Buchstabe" class="cls-7" transform="translate(170.25 297.73)">D</text></g><g id="Deployment_Label-2" data-name="Deployment Label"><rect class="cls-2" x="243.1" y="346.26" width="67.45" height="63.7"/><text id="Buchstabe-2" data-name="Buchstabe" class="cls-7" transform="translate(259.65 393.81)">D</text></g><g id="Deployment_Label-3" data-name="Deployment Label"><rect class="cls-2" x="358.41" y="265.13" width="67.45" height="63.7"/><text id="Buchstabe-3" data-name="Buchstabe" class="cls-7" transform="translate(374.96 312.69)">D</text></g></g></g></svg>