<svg xmlns="http://www.w3.org/2000/svg" viewBox="0 0 595.28 841.89"><defs><style>.cls-1{isolation:isolate;}.cls-2{fill:#9ee261;}.cls-3{opacity:0.24;mix-blend-mode:luminosity;}.cls-4{fill:#fff;mix-blend-mode:soft-light;}</style></defs><title>Zeichenfläche 1</title><g class="cls-1"><g id="Ebene_1_Kopie" data-name="Ebene 1 Kopie"><g id="Pod"><polygon id="Hintergrund" class="cls-2" points="111.25 239 99.04 251.22 99.04 300.07 147.9 300.07 160.11 287.86 160.11 239 111.25 239"/><polygon id="Schatten" class="cls-3" points="147.9 251.22 160.11 239 160.11 287.86 147.9 300.07 147.9 251.22"/><polygon id="Licht" class="cls-4" points="111.25 239 99.04 251.22 147.9 251.22 160.11 239 111.25 239"/><polygon id="Symbol_x" data-name="Symbol x" class="cls-3" points="141.57 289.12 135.65 283.19 141.57 277.26 135.22 270.9 129.29 276.83 123.36 270.9 117 277.26 122.93 283.19 117 289.12 123.36 295.48 129.29 289.55 135.22 295.48 141.57 289.12"/></g><g id="Pod-2" data-name="Pod"><polygon id="Hintergrund-2" data-name="Hintergrund" class="cls-2" points="404.58 461.44 392.37 473.66 392.37 522.51 441.22 522.51 453.44 510.3 453.44 461.44 404.58 461.44"/><polygon id="Schatten-2" data-name="Schatten" class="cls-3" points="441.22 473.66 453.44 461.44 453.44 510.3 441.22 522.51 441.22 473.66"/><polygon id="Licht-2" data-name="Licht" class="cls-4" points="404.58 461.44 392.37 473.66 441.22 473.66 453.44 461.44 404.58 461.44"/><polygon id="Symbol_x-2" data-name="Symbol x" class="cls-3" points="434.9 511.56 428.97 505.63 434.9 499.7 428.54 493.34 422.62 499.27 416.69 493.34 410.33 499.7 416.26 505.63 410.33 511.56 416.69 517.92 422.62 511.99 428.54 517.92 434.9 511.56"/></g><g id="Pod-3" data-name="Pod"><polygon id="Hintergrund-3" data-name="Hintergrund" class="cls-2" points="435.12 554.95 422.9 567.17 422.9 616.03 471.76 616.03 483.97 603.81 483.97 554.95 435.12 554.95"/><polygon id="Schatten-3" data-name="Schatten" class="cls-3" points="471.76 567.17 483.97 554.95 483.97 603.81 471.76 616.03 471.76 567.17"/><polygon id="Licht-3" data-name="Licht" class="cls-4" points="435.12 554.95 422.9 567.17 471.76 567.17 483.97 554.95 435.12 554.95"/><polygon id="Symbol_x-3" data-name="Symbol x" class="cls-3" points="465.44 605.07 459.51 599.14 465.44 593.21 459.08 586.85 453.15 592.78 447.22 586.85 440.86 593.21 446.79 599.14 440.86 605.07 447.22 611.43 453.15 605.5 459.08 611.43 465.44 605.07"/></g><g id="Pod-4" data-name="Pod"><polygon id="Hintergrund-4" data-name="Hintergrund" class="cls-2" points="286.9 511.19 274.69 523.41 274.69 572.27 323.55 572.27 335.76 560.05 335.76 511.19 286.9 511.19"/><polygon id="Schatten-4" data-name="Schatten" class="cls-3" points="323.55 523.41 335.76 511.19 335.76 560.05 323.55 572.27 323.55 523.41"/><polygon id="Licht-4" data-name="Licht" class="cls-4" points="286.9 511.19 274.69 523.41 323.55 523.41 335.76 511.19 286.9 511.19"/><polygon id="Symbol_x-4" data-name="Symbol x" class="cls-3" points="317.23 561.31 311.3 555.38 317.23 549.45 310.87 543.1 304.94 549.02 299.01 543.1 292.65 549.45 298.58 555.38 292.65 561.31 299.01 567.67 304.94 561.74 310.87 567.67 317.23 561.31"/></g><g id="Pod-5" data-name="Pod"><polygon id="Hintergrund-5" data-name="Hintergrund" class="cls-2" points="238.41 190.43 226.19 202.65 226.19 251.5 275.05 251.5 287.27 239.29 287.27 190.43 238.41 190.43"/><polygon id="Schatten-5" data-name="Schatten" class="cls-3" points="275.05 202.65 287.27 190.43 287.27 239.29 275.05 251.5 275.05 202.65"/><polygon id="Licht-5" data-name="Licht" class="cls-4" points="238.41 190.43 226.19 202.65 275.05 202.65 287.27 190.43 238.41 190.43"/><polygon id="Symbol_Dreieck" data-name="Symbol Dreieck" class="cls-3" points="256.44 222.33 242.25 246.91 270.63 246.91 256.44 222.33"/></g><g id="Pod-6" data-name="Pod"><polygon id="Hintergrund-6" data-name="Hintergrund" class="cls-2" points="212.7 315.46 200.49 327.67 200.49 376.53 249.34 376.53 261.56 364.31 261.56 315.46 212.7 315.46"/><polygon id="Schatten-6" data-name="Schatten" class="cls-3" points="249.34 327.67 261.56 315.46 261.56 364.31 249.34 376.53 249.34 327.67"/><polygon id="Licht-6" data-name="Licht" class="cls-4" points="212.7 315.46 200.49 327.67 249.34 327.67 261.56 315.46 212.7 315.46"/><polygon id="Symbol_Stern" data-name="Symbol Stern" class="cls-3" points="230.73 347.36 234.73 355.45 243.66 356.74 237.19 363.04 238.72 371.93 230.73 367.73 222.75 371.93 224.27 363.04 217.81 356.74 226.74 355.45 230.73 347.36"/></g><g id="Pod-7" data-name="Pod"><polygon id="Hintergrund-7" data-name="Hintergrund" class="cls-2" points="186.34 434.52 174.13 446.74 174.13 495.59 222.99 495.59 235.2 483.38 235.2 434.52 186.34 434.52"/><polygon id="Schatten-7" data-name="Schatten" class="cls-3" points="222.99 446.74 235.2 434.52 235.2 483.38 222.99 495.59 222.99 446.74"/><polygon id="Licht-7" data-name="Licht" class="cls-4" points="186.34 434.52 174.13 446.74 222.99 446.74 235.2 434.52 186.34 434.52"/><polygon id="Symbol_Stern-2" data-name="Symbol Stern" class="cls-3" points="204.38 466.42 208.37 474.51 217.3 475.81 210.84 482.11 212.36 491 204.38 486.8 196.39 491 197.92 482.11 191.46 475.81 200.38 474.51 204.38 466.42"/></g><g id="Pod-8" data-name="Pod"><polygon id="Hintergrund-8" data-name="Hintergrund" class="cls-2" points="99.11 385.51 86.89 397.73 86.89 446.58 135.75 446.58 147.97 434.37 147.97 385.51 99.11 385.51"/><polygon id="Schatten-8" data-name="Schatten" class="cls-3" points="135.75 397.73 147.97 385.51 147.97 434.37 135.75 446.58 135.75 397.73"/><polygon id="Licht-8" data-name="Licht" class="cls-4" points="99.11 385.51 86.89 397.73 135.75 397.73 147.97 385.51 99.11 385.51"/><polygon id="Symbol_Stern-3" data-name="Symbol Stern" class="cls-3" points="117.14 417.41 121.14 425.5 130.06 426.8 123.6 433.1 125.13 441.99 117.14 437.79 109.16 441.99 110.68 433.1 104.22 426.8 113.15 425.5 117.14 417.41"/></g><g id="Pod-9" data-name="Pod"><polygon id="Hintergrund-9" data-name="Hintergrund" class="cls-2" points="307.27 385.51 295.06 397.73 295.06 446.58 343.92 446.58 356.13 434.37 356.13 385.51 307.27 385.51"/><polygon id="Schatten-9" data-name="Schatten" class="cls-3" points="343.92 397.73 356.13 385.51 356.13 434.37 343.92 446.58 343.92 397.73"/><polygon id="Licht-9" data-name="Licht" class="cls-4" points="307.27 385.51 295.06 397.73 343.92 397.73 356.13 385.51 307.27 385.51"/><polygon id="Symbol_Stern-4" data-name="Symbol Stern" class="cls-3" points="325.31 417.41 329.3 425.5 338.23 426.8 331.77 433.1 333.3 441.99 325.31 437.79 317.32 441.99 318.85 433.1 312.39 426.8 321.32 425.5 325.31 417.41"/></g><g id="Pod-10" data-name="Pod"><polygon id="Hintergrund-10" data-name="Hintergrund" class="cls-2" points="361.47 284.92 349.25 297.13 349.25 345.99 398.11 345.99 410.33 333.78 410.33 284.92 361.47 284.92"/><polygon id="Schatten-10" data-name="Schatten" class="cls-3" points="398.11 297.13 410.33 284.92 410.33 333.78 398.11 345.99 398.11 297.13"/><polygon id="Licht-10" data-name="Licht" class="cls-4" points="361.47 284.92 349.25 297.13 398.11 297.13 410.33 284.92 361.47 284.92"/><rect id="Symbol_Rechteck" data-name="Symbol Rechteck" class="cls-3" x="367.22" y="316.82" width="24.58" height="24.58"/></g><g id="Pod-11" data-name="Pod"><polygon id="Hintergrund-11" data-name="Hintergrund" class="cls-2" points="442.91 358.27 430.7 370.48 430.7 419.34 479.55 419.34 491.77 407.13 491.77 358.27 442.91 358.27"/><polygon id="Schatten-11" data-name="Schatten" class="cls-3" points="479.55 370.48 491.77 358.27 491.77 407.13 479.55 419.34 479.55 370.48"/><polygon id="Licht-11" data-name="Licht" class="cls-4" points="442.91 358.27 430.7 370.48 479.55 370.48 491.77 358.27 442.91 358.27"/><rect id="Symbol_Rechteck-2" data-name="Symbol Rechteck" class="cls-3" x="448.66" y="390.17" width="24.58" height="24.58"/></g><g id="Pod-12" data-name="Pod"><polygon id="Hintergrund-12" data-name="Hintergrund" class="cls-2" points="398.47 179.22 386.26 191.44 386.26 240.29 435.12 240.29 447.33 228.08 447.33 179.22 398.47 179.22"/><polygon id="Schatten-12" data-name="Schatten" class="cls-3" points="435.12 191.44 447.33 179.22 447.33 228.08 435.12 240.29 435.12 191.44"/><polygon id="Licht-12" data-name="Licht" class="cls-4" points="398.47 179.22 386.26 191.44 435.12 191.44 447.33 179.22 398.47 179.22"/><polygon id="Symbol_Sechseck" data-name="Symbol Sechseck" class="cls-3" points="423.6 211.12 409.41 211.12 402.32 223.41 409.41 235.7 423.6 235.7 430.7 223.41 423.6 211.12"/></g><g id="Pod-13" data-name="Pod"><polygon id="Hintergrund-13" data-name="Hintergrund" class="cls-2" points="163.84 553.59 151.63 565.8 151.63 614.66 200.49 614.66 212.7 602.45 212.7 553.59 163.84 553.59"/><polygon id="Schatten-13" data-name="Schatten" class="cls-3" points="200.49 565.8 212.7 553.59 212.7 602.45 200.49 614.66 200.49 565.8"/><polygon id="Licht-13" data-name="Licht" class="cls-4" points="163.84 553.59 151.63 565.8 200.49 565.8 212.7 553.59 163.84 553.59"/><polygon id="Symbol_Sechseck-2" data-name="Symbol Sechseck" class="cls-3" points="188.97 585.49 174.78 585.49 167.69 597.78 174.78 610.07 188.97 610.07 196.07 597.78 188.97 585.49"/></g></g></g></svg>