<svg xmlns="http://www.w3.org/2000/svg" viewBox="0 0 595.28 841.89"><defs><style>.cls-1{isolation:isolate;}.cls-2{fill:#5bd879;}.cls-3{fill:#8ec4d7;}.cls-4{opacity:0.3;font-size:32.63px;}.cls-4,.cls-7{mix-blend-mode:luminosity;}.cls-12,.cls-4{font-family:HelveticaNeue-Bold, Helvetica Neue;font-weight:700;}.cls-5{opacity:0.46;}.cls-6{fill:#ea2143;}.cls-7{opacity:0.24;}.cls-8{fill:#fff;mix-blend-mode:soft-light;}.cls-9{fill:#9ee261;}.cls-10{fill:#e1e1e1;}.cls-11{fill:#edce1b;}.cls-12{opacity:0.4;font-size:23.14px;}.cls-13{fill:#1d1d1d;}</style></defs><title>Zeichenfläche 1 Kopie</title><g class="cls-1"><g id="Ebene_1_Kopie" data-name="Ebene 1 Kopie"><g id="Deployment"><rect class="cls-2" x="132.63" y="261.62" width="56.44" height="36.11"/><path class="cls-3" d="M514.45,254.37V527.14H48.14V254.37H514.45m2-2H46.14V529.14H516.45V252.37Z"/><g id="Deployment_Label" data-name="Deployment Label"><rect class="cls-3" x="46.14" y="207.45" width="47.56" height="44.92"/><text id="Buchstabe" class="cls-4" transform="translate(57.81 240.98)">D</text></g><g id="Pod" class="cls-5"><polygon id="Hintergrund" class="cls-6" points="82.46 322.51 69.92 335.06 69.92 385.23 120.09 385.23 132.63 372.68 132.63 322.51 82.46 322.51"/><polygon id="Schatten" class="cls-7" points="120.09 335.06 132.63 322.51 132.63 372.68 120.09 385.23 120.09 335.06"/><polygon id="Licht" class="cls-8" points="82.46 322.51 69.92 335.06 120.09 335.06 132.63 322.51 82.46 322.51"/><polygon id="Symbol_Stern" data-name="Symbol Stern" class="cls-7" points="100.98 355.27 105.08 363.58 114.25 364.91 107.62 371.38 109.18 380.51 100.98 376.2 92.78 380.51 94.35 371.38 87.71 364.91 96.88 363.58 100.98 355.27"/></g><g id="Pod-2" data-name="Pod"><polygon id="Hintergrund-2" data-name="Hintergrund" class="cls-9" points="183.37 322.51 170.82 335.06 170.82 385.23 221 385.23 233.54 372.68 233.54 322.51 183.37 322.51"/><polygon id="Schatten-2" data-name="Schatten" class="cls-7" points="221 335.06 233.54 322.51 233.54 372.68 221 385.23 221 335.06"/><polygon id="Licht-2" data-name="Licht" class="cls-8" points="183.37 322.51 170.82 335.06 221 335.06 233.54 322.51 183.37 322.51"/><polygon id="Symbol_Stern-2" data-name="Symbol Stern" class="cls-7" points="201.89 355.27 205.99 363.58 215.15 364.91 208.52 371.38 210.09 380.51 201.89 376.2 193.69 380.51 195.25 371.38 188.62 364.91 197.79 363.58 201.89 355.27"/></g><g id="Pod-3" data-name="Pod"><polygon id="Hintergrund-3" data-name="Hintergrund" class="cls-9" points="351.24 322.51 338.7 335.06 338.7 385.23 388.87 385.23 401.41 372.68 401.41 322.51 351.24 322.51"/><polygon id="Schatten-3" data-name="Schatten" class="cls-7" points="388.87 335.06 401.41 322.51 401.41 372.68 388.87 385.23 388.87 335.06"/><polygon id="Licht-3" data-name="Licht" class="cls-8" points="351.24 322.51 338.7 335.06 388.87 335.06 401.41 322.51 351.24 322.51"/><polygon id="Symbol_Stern-3" data-name="Symbol Stern" class="cls-7" points="369.76 355.27 373.86 363.58 383.03 364.91 376.39 371.38 377.96 380.51 369.76 376.2 361.56 380.51 363.13 371.38 356.49 364.91 365.66 363.58 369.76 355.27"/></g><g id="Pod-4" data-name="Pod"><polygon id="Hintergrund-4" data-name="Hintergrund" class="cls-10" points="422.91 410.13 410.37 422.67 410.37 472.84 460.54 472.84 473.08 460.3 473.08 410.13 422.91 410.13"/><polygon id="Hintergrund-5" data-name="Hintergrund" class="cls-11" points="422.91 429.59 410.37 442.14 410.37 472.84 460.54 472.84 473.08 460.3 473.08 429.59 422.91 429.59"/><polygon id="Schatten-4" data-name="Schatten" class="cls-7" points="460.54 422.67 473.08 410.13 473.08 460.3 460.54 472.84 460.54 422.67"/><polygon id="Licht-4" data-name="Licht" class="cls-8" points="422.91 410.13 410.37 422.67 460.54 422.67 473.08 410.13 422.91 410.13"/><polygon id="Licht-5" data-name="Licht" class="cls-8" points="422.91 429.59 410.37 442.14 460.54 442.14 473.08 429.59 422.91 429.59"/><polygon id="Symbol_Stern-4" data-name="Symbol Stern" class="cls-7" points="441.43 442.89 445.53 451.19 454.7 452.53 448.06 458.99 449.63 468.12 441.43 463.81 433.23 468.12 434.79 458.99 428.16 452.53 437.33 451.19 441.43 442.89"/></g><g id="Pod-5" data-name="Pod"><polygon id="Hintergrund-6" data-name="Hintergrund" class="cls-9" points="138.91 413.69 126.36 426.23 126.36 476.4 176.53 476.4 189.08 463.86 189.08 413.69 138.91 413.69"/><polygon id="Schatten-5" data-name="Schatten" class="cls-7" points="176.53 426.23 189.08 413.69 189.08 463.86 176.53 476.4 176.53 426.23"/><polygon id="Licht-6" data-name="Licht" class="cls-8" points="138.91 413.69 126.36 426.23 176.53 426.23 189.08 413.69 138.91 413.69"/><polygon id="Symbol_Stern-5" data-name="Symbol Stern" class="cls-7" points="157.43 446.45 161.53 454.75 170.69 456.09 164.06 462.55 165.63 471.68 157.43 467.37 149.22 471.68 150.79 462.55 144.16 456.09 153.32 454.75 157.43 446.45"/></g><path class="cls-2" d="M275.3,263.62V517.47H59.81V263.62H275.3m2-2H57.81V519.47H277.3V261.62Z"/><text class="cls-12" transform="translate(144.81 287.46)">RS</text><rect class="cls-2" x="360.22" y="261.62" width="56.44" height="36.11"/><path class="cls-2" d="M502.88,263.62V517.47H287.4V263.62H502.88m2-2H285.4V519.47H504.88V261.62Z"/><text class="cls-12" transform="translate(372.39 287.46)">RS</text><path class="cls-13" d="M222.34,314.4a81.26,81.26,0,0,1,103.51-9.55c1.1.77,2.22,1.52,3.26,2.37l1.17.9.44.34-2.1,2.62c1.66.2,3.3.51,5,.8s3.34.75,5.07,1.17c-.49-1.66-1-3.37-1.55-5.08s-1.22-3.4-1.94-5.09l-2.1,2.62-.47-.36-1.22-.95c-1.09-.88-2.26-1.67-3.41-2.47a85.31,85.31,0,0,0-80.47-8.6,85.27,85.27,0,0,0-27.89,18.59Z"/></g></g></g></svg>