<svg xmlns="http://www.w3.org/2000/svg" viewBox="0 0 595.28 841.89"><defs><style>.cls-1{isolation:isolate;}.cls-2{fill:#8ec4d7;}.cls-10,.cls-3,.cls-6{fill:#fff;}.cls-4{fill-opacity:0.15;}.cls-4,.cls-5{stroke:#000;}.cls-4,.cls-5,.cls-7{stroke-miterlimit:10;}.cls-5{stroke-width:1.11px;}.cls-6{font-size:27.27px;font-family:HelveticaNeue-Bold, Helvetica Neue;font-weight:700;}.cls-7{fill:#efc30a;stroke:#997e0d;}.cls-8{opacity:0.24;mix-blend-mode:luminosity;}.cls-9{fill:#9ee261;}.cls-10{mix-blend-mode:soft-light;}.cls-11{fill:#1d1d1d;}</style></defs><title>Zeichenfläche 1 Kopie 4</title><g class="cls-1"><g id="Ebene_1_Kopie" data-name="Ebene 1 Kopie"><rect class="cls-2" width="595.28" height="841.89"/><g id="Services_und_Pods" data-name="Services und Pods"><g id="Wolke"><ellipse class="cls-3" cx="211.7" cy="219.61" rx="68.21" ry="62.42"/><ellipse class="cls-3" cx="259.79" cy="613.53" rx="68.21" ry="62.42"/><ellipse class="cls-3" cx="288.51" cy="193.89" rx="76.81" ry="70.29"/><ellipse class="cls-3" cx="164.66" cy="571.48" rx="76.81" ry="70.29"/><ellipse class="cls-3" cx="383.8" cy="219.61" rx="85.18" ry="61.9"/><ellipse class="cls-3" cx="357.59" cy="609.24" rx="77.45" ry="61.9"/><ellipse class="cls-3" cx="454.39" cy="292.68" rx="83.97" ry="60.28"/><ellipse class="cls-3" cx="139.83" cy="259.23" rx="57.59" ry="60.28"/><ellipse class="cls-3" cx="427.64" cy="567" rx="99.64" ry="66.94"/><ellipse class="cls-3" cx="91.35" cy="420.32" rx="68.21" ry="62.42"/><ellipse class="cls-3" cx="114.31" cy="370.22" rx="68.21" ry="62.42"/><ellipse class="cls-3" cx="481.6" cy="494.46" rx="76.81" ry="70.29"/><ellipse class="cls-3" cx="491.95" cy="393.48" rx="77.45" ry="61.9"/><ellipse class="cls-3" cx="137.28" cy="501.19" rx="99.64" ry="66.94"/><ellipse class="cls-3" cx="116.49" cy="309.96" rx="80.93" ry="50.74"/><ellipse class="cls-3" cx="278.84" cy="414.9" rx="183.44" ry="169.25"/><ellipse class="cls-3" cx="313.72" cy="331.29" rx="91.28" ry="72.06"/><ellipse class="cls-3" cx="383.8" cy="306.99" rx="116.3" ry="92.95"/></g><rect class="cls-4" x="77.52" y="139.93" width="432.99" height="70.85"/><rect class="cls-5" x="351.94" y="100.39" width="158.57" height="39.55"/><text class="cls-6" transform="translate(375.92 128.65)">Services</text><rect class="cls-7" x="91.35" y="151.57" width="45.93" height="45.93"/><polygon id="Symbol_Stern" data-name="Symbol Stern" class="cls-8" points="114.31 162.74 118.41 171.05 127.58 172.38 120.95 178.84 122.51 187.98 114.31 183.66 106.11 187.98 107.68 178.84 101.05 172.38 110.21 171.05 114.31 162.74"/><rect class="cls-7" x="180.02" y="151.57" width="45.93" height="45.93"/><polygon id="Symbol_x" data-name="Symbol x" class="cls-8" points="215.6 181.44 209.51 175.36 215.6 169.27 209.07 162.74 202.98 168.83 196.89 162.74 190.36 169.27 196.45 175.36 190.36 181.44 196.89 187.97 202.98 181.89 209.07 187.97 215.6 181.44"/><rect class="cls-7" x="268.68" y="151.57" width="45.93" height="45.93"/><polygon id="Symbol_Dreieck" data-name="Symbol Dreieck" class="cls-8" points="291.65 162.74 277.08 187.97 306.22 187.97 291.65 162.74"/><rect class="cls-7" x="357.35" y="151.57" width="45.93" height="45.93"/><polygon id="Symbol_Sechseck" data-name="Symbol Sechseck" class="cls-8" points="387.6 162.74 373.03 162.74 365.75 175.36 373.03 187.97 387.6 187.97 394.89 175.36 387.6 162.74"/><rect class="cls-7" x="446.02" y="151.57" width="45.93" height="45.93"/><rect id="Symbol_Rechteck" data-name="Symbol Rechteck" class="cls-8" x="456.36" y="162.74" width="25.24" height="25.24"/><g id="Pod"><polygon id="Hintergrund" class="cls-9" points="117.25 275.63 104.71 288.18 104.71 338.35 154.88 338.35 167.43 325.81 167.43 275.63 117.25 275.63"/><polygon id="Schatten" class="cls-8" points="154.88 288.18 167.43 275.63 167.43 325.81 154.88 338.35 154.88 288.18"/><polygon id="Licht" class="cls-10" points="117.25 275.63 104.71 288.18 154.88 288.18 167.43 275.63 117.25 275.63"/><polygon id="Symbol_Stern-2" data-name="Symbol Stern" class="cls-8" points="135.77 308.39 139.87 316.7 149.04 318.03 142.41 324.5 143.97 333.63 135.77 329.32 127.57 333.63 129.14 324.5 122.5 318.03 131.67 316.7 135.77 308.39"/></g><g id="Pod-2" data-name="Pod"><polygon id="Hintergrund-2" data-name="Hintergrund" class="cls-9" points="234.98 301.7 222.43 314.24 222.43 364.42 272.61 364.42 285.15 351.87 285.15 301.7 234.98 301.7"/><polygon id="Schatten-2" data-name="Schatten" class="cls-8" points="272.61 314.24 285.15 301.7 285.15 351.87 272.61 364.42 272.61 314.24"/><polygon id="Licht-2" data-name="Licht" class="cls-10" points="234.98 301.7 222.43 314.24 272.61 314.24 285.15 301.7 234.98 301.7"/><polygon id="Symbol_Dreieck-2" data-name="Symbol Dreieck" class="cls-8" points="253.5 334.46 238.93 359.7 268.07 359.7 253.5 334.46"/></g><g id="Pod-3" data-name="Pod"><polygon id="Hintergrund-3" data-name="Hintergrund" class="cls-9" points="269.69 401.28 257.15 413.82 257.15 464 307.32 464 319.87 451.45 319.87 401.28 269.69 401.28"/><polygon id="Schatten-3" data-name="Schatten" class="cls-8" points="307.32 413.82 319.87 401.28 319.87 451.45 307.32 464 307.32 413.82"/><polygon id="Licht-3" data-name="Licht" class="cls-10" points="269.69 401.28 257.15 413.82 307.32 413.82 319.87 401.28 269.69 401.28"/><polygon id="Symbol_Sechseck-2" data-name="Symbol Sechseck" class="cls-8" points="295.5 434.04 280.93 434.04 273.64 446.66 280.93 459.27 295.5 459.27 302.79 446.66 295.5 434.04"/></g><g id="Pod-4" data-name="Pod"><polygon id="Hintergrund-4" data-name="Hintergrund" class="cls-9" points="370.13 234.88 357.59 247.42 357.59 297.6 407.76 297.6 420.3 285.05 420.3 234.88 370.13 234.88"/><polygon id="Schatten-4" data-name="Schatten" class="cls-8" points="407.76 247.42 420.3 234.88 420.3 285.05 407.76 297.6 407.76 247.42"/><polygon id="Licht-4" data-name="Licht" class="cls-10" points="370.13 234.88 357.59 247.42 407.76 247.42 420.3 234.88 370.13 234.88"/><polygon id="Symbol_Stern-3" data-name="Symbol Stern" class="cls-8" points="388.65 267.64 392.75 275.95 401.92 277.28 395.28 283.75 396.85 292.88 388.65 288.56 380.45 292.88 382.01 283.75 375.38 277.28 384.55 275.95 388.65 267.64"/></g><g id="Pod-5" data-name="Pod"><polygon id="Hintergrund-5" data-name="Hintergrund" class="cls-9" points="416.22 477.28 403.68 489.82 403.68 540 453.85 540 466.39 527.45 466.39 477.28 416.22 477.28"/><polygon id="Schatten-5" data-name="Schatten" class="cls-8" points="453.85 489.82 466.39 477.28 466.39 527.45 453.85 540 453.85 489.82"/><polygon id="Licht-5" data-name="Licht" class="cls-10" points="416.22 477.28 403.68 489.82 453.85 489.82 466.39 477.28 416.22 477.28"/><rect id="Symbol_Rechteck-2" data-name="Symbol Rechteck" class="cls-8" x="422.12" y="510.04" width="25.24" height="25.24"/></g><g id="Pod-6" data-name="Pod"><polygon id="Hintergrund-6" data-name="Hintergrund" class="cls-9" points="434.01 364 421.47 376.54 421.47 426.72 471.64 426.72 484.19 414.17 484.19 364 434.01 364"/><polygon id="Schatten-6" data-name="Schatten" class="cls-8" points="471.64 376.54 484.19 364 484.19 414.17 471.64 426.72 471.64 376.54"/><polygon id="Licht-6" data-name="Licht" class="cls-10" points="434.01 364 421.47 376.54 471.64 376.54 484.19 364 434.01 364"/><polygon id="Symbol_Sechseck-3" data-name="Symbol Sechseck" class="cls-8" points="459.82 396.76 445.25 396.76 437.96 409.38 445.25 422 459.82 422 467.1 409.38 459.82 396.76"/></g><g id="Pod-7" data-name="Pod"><polygon id="Hintergrund-7" data-name="Hintergrund" class="cls-9" points="120.73 463.11 108.19 475.65 108.19 525.82 158.36 525.82 170.9 513.28 170.9 463.11 120.73 463.11"/><polygon id="Schatten-7" data-name="Schatten" class="cls-8" points="158.36 475.65 170.9 463.11 170.9 513.28 158.36 525.82 158.36 475.65"/><polygon id="Licht-7" data-name="Licht" class="cls-10" points="120.73 463.11 108.19 475.65 158.36 475.65 170.9 463.11 120.73 463.11"/><polygon id="Symbol_x-2" data-name="Symbol x" class="cls-8" points="151.87 514.57 145.78 508.48 151.87 502.39 145.34 495.86 139.25 501.95 133.16 495.86 126.63 502.39 132.72 508.48 126.63 514.57 133.16 521.1 139.25 515.01 145.34 521.1 151.87 514.57"/></g><g id="Pod-8" data-name="Pod"><polygon id="Hintergrund-8" data-name="Hintergrund" class="cls-9" points="240.97 536.16 228.43 548.71 228.43 598.88 278.6 598.88 291.14 586.33 291.14 536.16 240.97 536.16"/><polygon id="Schatten-8" data-name="Schatten" class="cls-8" points="278.6 548.71 291.14 536.16 291.14 586.33 278.6 598.88 278.6 548.71"/><polygon id="Licht-8" data-name="Licht" class="cls-10" points="240.97 536.16 228.43 548.71 278.6 548.71 291.14 536.16 240.97 536.16"/><polygon id="Symbol_x-3" data-name="Symbol x" class="cls-8" points="272.11 587.63 266.02 581.54 272.11 575.45 265.58 568.92 259.49 575.01 253.4 568.92 246.87 575.45 252.96 581.54 246.87 587.63 253.4 594.16 259.49 588.07 265.58 594.16 272.11 587.63"/></g><polygon class="cls-11" points="287.61 199.94 261.85 283.98 257.43 282.62 259.79 292.88 267.49 285.7 263.06 284.35 288.82 200.31 287.61 199.94"/><polygon class="cls-11" points="114.64 202.99 128.25 258.93 123.75 260.03 131.02 267.64 133.98 257.54 129.48 258.63 115.88 202.69 114.64 202.99"/><polygon class="cls-11" points="388.33 200.75 428.25 349.27 423.78 350.47 431.22 357.9 433.94 347.74 429.47 348.94 389.56 200.42 388.33 200.75"/><polygon class="cls-11" points="369.82 202.9 308.5 386.51 304.12 385.05 306.22 395.36 314.1 388.38 309.71 386.92 371.02 203.3 369.82 202.9"/><polygon class="cls-11" points="467.04 203.03 436.02 461.75 431.42 461.2 435.56 470.88 441.87 462.45 437.28 461.9 468.3 203.18 467.04 203.03"/><polygon class="cls-11" points="208.42 203.72 255.19 520.84 250.62 521.51 257.15 529.76 261.03 519.98 256.45 520.65 209.68 203.54 208.42 203.72"/><polygon class="cls-11" points="189.34 203.67 153.22 448.08 148.64 447.41 152.51 457.19 159.05 448.95 154.48 448.27 190.6 203.86 189.34 203.67"/></g></g></g></svg>