<svg xmlns="http://www.w3.org/2000/svg" viewBox="0 0 595.28 841.89"><defs><style>.cls-1{isolation:isolate;}.cls-2{fill:#8ec4d7;}.cls-10,.cls-14,.cls-3,.cls-7,.cls-8{fill:#fff;}.cls-4,.cls-5{fill-opacity:0.15;}.cls-16,.cls-4,.cls-5,.cls-6{stroke:#000;}.cls-11,.cls-16,.cls-4,.cls-5,.cls-6{stroke-miterlimit:10;}.cls-5{stroke-width:0.84px;}.cls-6{stroke-width:1.11px;}.cls-7{font-size:27.27px;}.cls-10,.cls-7,.cls-8{font-family:HelveticaNeue-Bold, Helvetica Neue;font-weight:700;}.cls-8{font-size:22.64px;}.cls-9{letter-spacing:-0.02em;}.cls-10{font-size:45.74px;}.cls-11{fill:#efc30a;stroke:#997e0d;}.cls-12{opacity:0.24;mix-blend-mode:luminosity;}.cls-13{fill:#9ee261;}.cls-14{mix-blend-mode:soft-light;}.cls-15{fill:#1d1d1d;}.cls-16{fill:none;}</style></defs><title>Zeichenfläche 1 Kopie 5</title><g class="cls-1"><g id="Ebene_1_Kopie" data-name="Ebene 1 Kopie"><rect class="cls-2" x="0.98" width="595.28" height="841.89"/><g id="Servicescloud_2" data-name="Servicescloud 2"><g id="Wolke"><ellipse class="cls-3" cx="211.7" cy="207.98" rx="68.21" ry="62.42"/><ellipse class="cls-3" cx="259.79" cy="601.9" rx="68.21" ry="62.42"/><ellipse class="cls-3" cx="288.51" cy="182.26" rx="76.81" ry="70.29"/><ellipse class="cls-3" cx="164.66" cy="559.86" rx="76.81" ry="70.29"/><ellipse class="cls-3" cx="383.8" cy="207.98" rx="85.18" ry="61.9"/><ellipse class="cls-3" cx="357.59" cy="597.62" rx="77.45" ry="61.9"/><ellipse class="cls-3" cx="454.39" cy="281.05" rx="83.97" ry="60.28"/><ellipse class="cls-3" cx="139.83" cy="247.6" rx="57.59" ry="60.28"/><ellipse class="cls-3" cx="427.64" cy="555.37" rx="99.64" ry="66.94"/><ellipse class="cls-3" cx="91.35" cy="408.7" rx="68.21" ry="62.42"/><ellipse class="cls-3" cx="114.31" cy="358.59" rx="68.21" ry="62.42"/><ellipse class="cls-3" cx="481.6" cy="482.84" rx="76.81" ry="70.29"/><ellipse class="cls-3" cx="491.95" cy="381.85" rx="77.45" ry="61.9"/><ellipse class="cls-3" cx="137.28" cy="489.56" rx="99.64" ry="66.94"/><ellipse class="cls-3" cx="116.49" cy="298.34" rx="80.93" ry="50.74"/><ellipse class="cls-3" cx="277.08" cy="412.55" rx="183.44" ry="169.25"/><ellipse class="cls-3" cx="313.72" cy="319.66" rx="91.28" ry="72.06"/><ellipse class="cls-3" cx="383.8" cy="295.37" rx="116.3" ry="92.95"/></g><rect class="cls-4" x="77.52" y="128.31" width="432.99" height="70.85"/><rect class="cls-5" x="51.49" y="590.15" width="121.26" height="178.01"/><rect class="cls-5" x="172.75" y="590.15" width="121.26" height="178.01"/><rect class="cls-6" x="351.94" y="88.76" width="158.57" height="39.55"/><text class="cls-7" transform="translate(375.92 117.03)">Services</text><text class="cls-8" transform="translate(71.51 687.98)">Sec<tspan class="cls-9" x="40.69" y="0">r</tspan><tspan x="49.09" y="0">et</tspan></text><text class="cls-8" transform="translate(196.13 671.14)">Config<tspan x="0" y="27.17">Maps</tspan></text><rect class="cls-5" x="294.01" y="590.15" width="121.26" height="178.01"/><rect class="cls-5" x="415.28" y="590.15" width="121.26" height="178.01"/><text class="cls-10" transform="translate(455.49 687.23)">...</text><text class="cls-8" transform="translate(303.48 671.14)">Persisted <tspan x="0" y="27.17">Storage</tspan></text><rect class="cls-11" x="91.35" y="139.94" width="45.93" height="45.93"/><polygon id="Symbol_Stern" data-name="Symbol Stern" class="cls-12" points="114.31 151.11 118.41 159.42 127.58 160.75 120.95 167.22 122.51 176.35 114.31 172.04 106.11 176.35 107.68 167.22 101.05 160.75 110.21 159.42 114.31 151.11"/><rect class="cls-11" x="180.02" y="139.94" width="45.93" height="45.93"/><polygon id="Symbol_x" data-name="Symbol x" class="cls-12" points="215.6 169.82 209.51 163.73 215.6 157.64 209.07 151.11 202.98 157.2 196.89 151.11 190.36 157.64 196.45 163.73 190.36 169.82 196.89 176.35 202.98 170.26 209.07 176.35 215.6 169.82"/><rect class="cls-11" x="268.68" y="139.94" width="45.93" height="45.93"/><polygon id="Symbol_Dreieck" data-name="Symbol Dreieck" class="cls-12" points="291.65 151.11 277.08 176.35 306.22 176.35 291.65 151.11"/><rect class="cls-11" x="357.35" y="139.94" width="45.93" height="45.93"/><polygon id="Symbol_Sechseck" data-name="Symbol Sechseck" class="cls-12" points="387.6 151.11 373.03 151.11 365.75 163.73 373.03 176.35 387.6 176.35 394.89 163.73 387.6 151.11"/><rect class="cls-11" x="446.02" y="139.94" width="45.93" height="45.93"/><rect id="Symbol_Rechteck" data-name="Symbol Rechteck" class="cls-12" x="456.36" y="151.11" width="25.24" height="25.24"/><g id="Pod"><polygon id="Hintergrund" class="cls-13" points="187.07 333.91 167.89 353.09 167.89 429.79 244.6 429.79 263.77 410.61 263.77 333.91 187.07 333.91"/><polygon id="Schatten" class="cls-12" points="244.6 353.09 263.77 333.91 263.77 410.61 244.6 429.79 244.6 353.09"/><polygon id="Licht" class="cls-14" points="187.07 333.91 167.89 353.09 244.6 353.09 263.77 333.91 187.07 333.91"/><polygon id="Symbol_Stern-2" data-name="Symbol Stern" class="cls-12" points="215.38 383.99 221.65 396.69 235.67 398.73 225.52 408.62 227.92 422.57 215.38 415.98 202.84 422.57 205.24 408.62 195.1 398.73 209.11 396.69 215.38 383.99"/></g><g id="Pod-2" data-name="Pod"><polygon id="Hintergrund-2" data-name="Hintergrund" class="cls-13" points="343.43 333.91 324.26 353.09 324.26 429.79 400.96 429.79 420.13 410.61 420.13 333.91 343.43 333.91"/><polygon id="Schatten-2" data-name="Schatten" class="cls-12" points="400.96 353.09 420.13 333.91 420.13 410.61 400.96 429.79 400.96 353.09"/><polygon id="Licht-2" data-name="Licht" class="cls-14" points="343.43 333.91 324.26 353.09 400.96 353.09 420.13 333.91 343.43 333.91"/><polygon id="Symbol_x-2" data-name="Symbol x" class="cls-12" points="391.04 412.59 381.73 403.28 391.04 393.98 381.05 383.99 371.74 393.3 362.44 383.99 352.45 393.98 361.76 403.28 352.45 412.59 362.44 422.57 371.74 413.27 381.05 422.57 391.04 412.59"/></g><polygon class="cls-15" points="114.69 191.5 177.93 319.78 173.78 321.82 182.53 327.67 183.21 317.17 179.06 319.22 115.83 190.94 114.69 191.5"/><polygon class="cls-15" points="207.42 191.7 358.02 322.18 354.99 325.68 365.32 327.67 361.88 317.73 358.85 321.22 208.25 190.74 207.42 191.7"/><line class="cls-16" x1="191.57" y1="437.54" x2="101.42" y2="581.54"/><line class="cls-16" x1="215.83" y1="436.66" x2="217.7" y2="581.54"/><line class="cls-16" x1="365.32" y1="437.54" x2="354.65" y2="578.02"/><polygon class="cls-15" points="216.23 320.95 204.51 202.9 209.12 202.44 202.98 193.89 198.65 203.48 203.25 203.02 214.97 321.07 216.23 320.95"/></g></g></g></svg>